<svg width="24" height="24" viewBox="0 0 24 24" fill="none" xmlns="http://www.w3.org/2000/svg">
<rect width="24" height="24" rx="4" fill="#1F1F1F"/>
<g clip-path="url(#clip0_744_8415)">
<path d="M17.07 7.57548C16.8901 7.42295 16.6076 7.40112 16.3155 7.5184H16.315C16.0077 7.64168 7.61841 11.2401 7.27689 11.3871C7.21477 11.4087 6.67227 11.6111 6.72815 12.062C6.77804 12.4685 7.21405 12.6369 7.2673 12.6563L9.40012 13.3866C9.54163 13.8577 10.0633 15.5955 10.1786 15.9667C10.2506 16.1982 10.3678 16.5023 10.5734 16.5649C10.7537 16.6344 10.9331 16.5709 11.0492 16.4797L12.3532 15.2703L14.4582 16.9119L14.5083 16.9419C14.6513 17.0052 14.7882 17.0369 14.9189 17.0369C15.0199 17.0369 15.1168 17.0179 15.2093 16.98C15.5247 16.8505 15.6509 16.55 15.6641 16.516L17.2364 8.34319C17.3323 7.90669 17.199 7.68461 17.07 7.57548ZM11.2811 13.6787L10.5616 15.5974L9.84214 13.1991L15.3583 9.12192L11.2811 13.6787Z" fill="#29B6F6"/>
</g>
<defs>
<clipPath id="clip0_744_8415">
<rect width="11.9916" height="11.9916" fill="white" transform="translate(6.00464 6.00415)"/>
</clipPath>
</defs>
</svg>
