<svg width="24" height="24" viewBox="0 0 24 24" fill="none" xmlns="http://www.w3.org/2000/svg">
<rect width="23.9498" height="23.9498" rx="4" fill="#8C9EFF"/>
<g clip-path="url(#clip0_744_8439)">
<path d="M15.997 9.00199C15.997 9.00199 14.8516 8.10561 13.4988 8.00269L13.3769 8.24652C14.6 8.54581 15.1611 8.97476 15.7472 9.50164C14.7367 8.98575 13.7389 8.50234 11.9998 8.50234C10.2608 8.50234 9.26298 8.98575 8.25244 9.50164C8.83853 8.97476 9.50606 8.49859 10.6228 8.24652L10.5009 8.00269C9.08161 8.13684 8.00261 9.00199 8.00261 9.00199C8.00261 9.00199 6.72326 10.8569 6.50366 14.4981C7.79326 15.9854 9.75139 15.9971 9.75139 15.9971L10.1609 15.4512C9.46584 15.2096 8.68089 14.7782 8.00261 13.9985C8.81155 14.6106 10.0324 15.2476 11.9998 15.2476C13.9672 15.2476 15.1881 14.6106 15.997 13.9985C15.3187 14.7782 14.5338 15.2096 13.8388 15.4512L14.2482 15.9971C14.2482 15.9971 16.2064 15.9854 17.496 14.4981C17.2764 10.8569 15.997 9.00199 15.997 9.00199ZM10.376 13.4988C9.89304 13.4988 9.50157 13.0514 9.50157 12.4995C9.50157 11.9477 9.89304 11.5002 10.376 11.5002C10.8589 11.5002 11.2503 11.9477 11.2503 12.4995C11.2503 13.0514 10.8589 13.4988 10.376 13.4988ZM13.6237 13.4988C13.1408 13.4988 12.7493 13.0514 12.7493 12.4995C12.7493 11.9477 13.1408 11.5002 13.6237 11.5002C14.1066 11.5002 14.4981 11.9477 14.4981 12.4995C14.4981 13.0514 14.1066 13.4988 13.6237 13.4988Z" fill="white"/>
</g>
<defs>
<clipPath id="clip0_744_8439">
<rect width="11.9916" height="11.9916" fill="white" transform="translate(6.00391 6.00415)"/>
</clipPath>
</defs>
</svg>
